<svg width="26" height="26" viewBox="0 0 26 26" fill="none" xmlns="http://www.w3.org/2000/svg">
<path d="M23.392 23.4002V15.7822C23.392 12.0382 22.5859 9.17822 18.218 9.17822C16.112 9.17822 14.708 10.3222 14.136 11.4142H14.084V9.51622H9.94995V23.4002H14.266V16.5102C14.266 14.6902 14.604 12.9482 16.84 12.9482C19.05 12.9482 19.076 15.0022 19.076 16.6142V23.3742H23.392V23.4002Z" fill="white"/>
<path d="M2.92993 9.51611H7.24593V23.4001H2.92993V9.51611Z" fill="white"/>
<path d="M5.08792 2.6001C3.70992 2.6001 2.59192 3.7181 2.59192 5.0961C2.59192 6.4741 3.70992 7.6181 5.08792 7.6181C6.46592 7.6181 7.58392 6.4741 7.58392 5.0961C7.58392 3.7181 6.46592 2.6001 5.08792 2.6001Z" fill="white"/>
</svg>
