<svg xmlns="http://www.w3.org/2000/svg" width="37" height="36" viewBox="0 0 37 36" fill="none">
  <g clip-path="url(#clip0_1_75)">
    <path d="M13.8744 9.06715C9.63254 13.456 10.5582 20.7394 15.4172 23.9659C15.5773 24.0722 15.7903 24.0511 15.9278 23.9168C16.9508 22.9172 17.8161 21.9491 18.5739 20.7178C18.6898 20.5294 18.6177 20.285 18.4232 20.1796C17.6821 19.7781 16.9447 19.0253 16.5295 18.2301C16.5295 18.23 16.5293 18.2299 16.5292 18.23C16.529 18.2301 16.5289 18.23 16.5288 18.2299C16.0316 17.2398 15.8623 16.13 16.1255 14.9838C16.1255 14.9835 16.1258 14.9834 16.126 14.9834C16.1263 14.9834 16.1264 14.9833 16.1265 14.9831C16.4294 13.5165 18.0029 12.1522 19.206 10.8904C19.2072 10.889 19.2067 10.8868 19.2049 10.8862C19.2032 10.8856 19.2027 10.8834 19.204 10.882L23.7104 6.28259C25.5074 4.44851 28.4633 4.43338 30.2789 6.24903C32.1129 8.04597 32.1432 11.0167 30.3463 12.8507L27.615 15.6594C27.4886 15.7894 27.4476 15.9791 27.5067 16.1505C28.1356 17.9742 28.2903 20.5456 27.8689 22.4884C27.857 22.5427 27.9242 22.5783 27.9631 22.5386L33.7761 16.6055C37.4897 12.8154 37.4581 6.64451 33.7061 2.8925C29.8771 -0.936535 23.6436 -0.904669 19.8539 2.96319L13.8977 9.04225C13.8898 9.05055 13.8824 9.05899 13.8744 9.06715Z" fill="white"/>
    <path d="M24.7419 24.8016C24.7418 24.8018 24.742 24.802 24.7423 24.8019C24.7453 24.8007 24.7481 24.7995 24.7511 24.7982C24.752 24.7978 24.7528 24.7971 24.7533 24.7961C25.9386 22.6279 26.1722 20.1415 25.617 17.7174C25.6168 17.7163 25.6154 17.7159 25.6146 17.7167C25.6142 17.7172 25.6135 17.7173 25.613 17.717L25.6123 17.7167C25.6116 17.7164 25.6111 17.7158 25.6109 17.715C25.0827 15.5552 23.6343 13.4107 21.6673 12.0903C21.498 11.9767 21.2277 11.9898 21.0692 12.118C20.0726 12.9238 19.0972 13.9571 18.4535 15.2757C18.3524 15.4827 18.4281 15.7313 18.6273 15.847C19.3742 16.2806 20.0487 16.9154 20.5004 17.7581C20.5005 17.7583 20.5008 17.7584 20.501 17.7583C20.5012 17.7581 20.5014 17.7582 20.5015 17.7584C20.8534 18.3539 21.2001 19.4834 20.9755 20.6971C20.9755 20.6972 20.9754 20.6973 20.9753 20.6973C20.9751 20.6973 20.975 20.6975 20.975 20.6976C20.7652 22.3069 19.1402 23.7831 17.8482 25.1133C17.8481 25.1135 17.8481 25.1138 17.8483 25.1139C17.8484 25.1141 17.8484 25.1144 17.8483 25.1146C16.8645 26.1205 14.3647 28.669 13.3636 29.6917C11.5667 31.5257 8.59594 31.556 6.76194 29.7591C4.92793 27.9621 4.89761 24.9914 6.69455 23.1573L9.43395 20.3402C9.55811 20.2125 9.60032 20.027 9.5451 19.8577C8.93683 17.9914 8.77019 15.4779 9.15412 13.5373C9.16482 13.4832 9.09827 13.4487 9.05965 13.4881L3.334 19.3319C-0.41758 23.1609 -0.385785 29.3951 3.40477 33.1856C7.23359 36.937 13.4356 36.8736 17.1871 33.0448C18.4903 31.587 24.0692 26.4217 24.7419 24.8016Z" fill="white"/>
  </g>
  <defs>
    <clipPath id="clip0_1_75">
      <rect width="36" height="36" fill="white" transform="translate(0.540924)"/>
    </clipPath>
  </defs>
</svg>