<svg xmlns="http://www.w3.org/2000/svg" width="182" height="34" viewBox="0 0 182 34" fill="none">
  <path d="M28.8037 6.30135C29.9338 6.29784 30.0521 7.18751 29.8756 7.78475C34.4694 14.6194 33.6556 24.2463 26.231 30.0354C23.7605 31.9206 20.4376 33.2827 16.7166 33.3547C12.9177 33.4285 9.8549 32.3041 7.15716 30.5465C5.97921 30.9256 5.63583 30.0743 5.66068 29.4167C6.08791 28.0676 7.9071 28.468 7.67377 29.9523C9.12308 30.9092 10.7493 31.6939 12.6363 32.1379C21.174 34.1365 27.8508 29.0832 30.3319 23.8937C32.7052 18.9291 32.4929 13.4074 29.4731 8.58836C29.2165 8.17907 28.9589 8.45322 28.5711 8.29296C27.5891 7.88707 27.6524 6.63965 28.8037 6.30135Z" fill="url(#paint0_linear_1_7)"/>
  <path d="M13.6228 2.7351C15.8414 2.93643 14.3101 5.92135 12.84 4.38014L12.5064 4.48131C8.81264 5.62135 6.26709 8.11568 4.85724 10.6813C2.56966 14.8444 2.69085 19.9174 5.30715 23.995C6.88198 26.4491 9.43164 28.6348 13.1278 29.6163C13.7733 28.7136 14.8061 28.9579 15.1003 29.8713C15.2956 30.9566 13.7915 31.7434 13.076 30.4028C2.61782 27.7383 0.38103 16.4071 4.27132 10.1357C6.06604 7.24243 8.36544 4.91284 12.6583 3.62436C12.793 3.15216 12.9513 2.89931 13.6228 2.7351Z" fill="url(#paint1_linear_1_7)"/>
  <path d="M18.7577 2.7351C19.4819 2.81429 19.6733 3.10584 19.8289 3.57066C24.1237 4.72287 26.7491 7.35362 28.4331 10.2357C32.1928 16.6708 30.042 27.5603 19.6431 30.3993C18.9269 31.6299 17.6264 31.1202 17.5985 29.9507C17.817 29.016 18.8978 28.6419 19.5656 29.617C23.3842 28.6244 26.0835 26.1802 27.5881 23.6011C30.0106 19.4483 30.0186 14.4564 27.5805 10.3052C26.0409 7.68398 23.5164 5.44287 19.6992 4.33384C18.3151 5.8929 16.688 3.18853 18.7577 2.7351Z" fill="url(#paint2_linear_1_7)"/>
  <path d="M5.65463 17.6978C7.02016 17.7368 7.13917 19.124 6.15436 19.7023C7.06016 22.9871 9.77699 26.6469 14.8653 27.4382C16.9166 27.7416 19.0687 27.3853 20.7904 26.5712C24.1316 24.9916 25.7931 22.3704 26.5676 19.7045C24.8576 18.7521 26.8906 16.6884 27.8917 18.2894C28.098 18.8288 27.9896 19.3108 27.3728 19.6844C26.4972 23.2837 23.4329 27.4271 17.8444 28.2213C15.6085 28.5245 13.2832 28.1049 11.4375 27.1955C7.89333 25.4493 6.11048 22.5748 5.35165 19.6883C4.47254 19.1706 4.48159 17.9938 5.65463 17.6978Z" fill="url(#paint3_linear_1_7)"/>
  <path d="M16.2712 0.642045C19.6524 0.624927 22.961 1.71196 25.3575 3.35658L25.3853 3.35532C25.6721 3.51379 25.6652 3.41202 25.9937 3.44368C26.7082 3.51251 26.9835 3.92621 26.9791 4.36696C26.9821 4.99699 26.398 5.69046 25.7077 5.49359C25.5163 5.44028 25.3165 5.31855 25.1187 5.10803C25.1192 5.10596 25.1197 5.10391 25.1202 5.10189C24.8667 4.73546 24.8794 4.43131 25.0033 4.04837C23.7228 3.17333 22.1143 2.41336 20.4539 1.96858C12.2678 -0.224524 5.40517 4.40903 2.73576 9.41011C-0.0931919 14.71 0.117011 20.3924 3.33459 25.5443C3.36904 25.5471 3.40329 25.5498 3.43775 25.5525C4.36841 25.5551 4.72321 26.5411 4.38197 27.0265C3.41109 28.4074 1.88139 27.1067 2.65579 25.9274C0.931021 23.2023 0.0866824 20.4057 0.00587855 17.4153C-0.125168 12.5657 1.92219 7.24856 6.84055 3.68979C9.33213 1.88693 12.6209 0.660531 16.2712 0.642045Z" fill="url(#paint4_linear_1_7)"/>
  <path d="M18.6693 17.7362L18.7131 17.6929C18.4356 17.2093 18.2969 16.7257 18.2969 16.2422V13.2108H20.7613C20.7832 14.0553 20.7942 15.3184 20.7942 17C20.7942 18.6817 20.7832 19.9448 20.7613 20.7892H18.6254L14.036 16.2313L13.9922 16.2747C14.277 16.7438 14.4194 17.2093 14.4194 17.6712V20.7892H11.9439C11.9293 19.9448 11.922 18.6817 11.922 17C11.922 15.3184 11.9293 14.0553 11.9439 13.2108H14.0798L18.6693 17.7362Z" fill="url(#paint5_linear_1_7)"/>
  <path d="M16.036 5.61191C16.3638 5.59404 16.8019 5.60692 17.1301 5.63231C22.7307 6.06587 26.1228 10.0951 27.1579 13.6271C28.0326 13.9888 28.2568 14.9396 27.6307 15.391C26.2642 16.3762 25.2741 14.6138 26.3883 13.7636C25.3245 10.3182 22.1761 6.74708 16.7488 6.38601C11.0613 6.30969 7.3149 10.176 6.32259 13.7417C6.65678 14.0455 6.85574 14.3496 6.80246 14.7354C6.57623 16.3717 4.34394 15.6315 4.78712 14.3201C4.89284 14.0072 5.13547 13.8011 5.53522 13.6356C6.77239 9.93904 10.0098 5.86281 16.036 5.61191Z" fill="url(#paint6_linear_1_7)"/>
  <path fill-rule="evenodd" clip-rule="evenodd" d="M104.959 8.91858C112.031 8.76417 116.432 8.73348 118.161 8.82613C120.199 8.91878 121.79 9.42046 122.932 10.3314C124.075 11.227 124.677 12.4933 124.739 14.13C124.832 15.8903 124.824 17.8128 124.716 19.8973C124.639 21.4877 124.036 22.7463 122.909 23.6728C121.798 24.5992 120.215 25.1089 118.161 25.2015C117.543 25.217 116.447 25.2247 114.872 25.2247C113.312 25.2247 112.208 25.217 111.56 25.2015C109.506 25.1089 107.908 24.5915 106.765 23.6496C105.638 22.6922 105.028 21.4414 104.936 19.8973C104.828 18.137 104.835 14.4774 104.959 8.91858ZM110.216 19.249C110.216 19.7585 110.324 20.1369 110.541 20.3839C110.757 20.6155 111.127 20.7311 111.652 20.7311H117.999C118.539 20.7311 118.918 20.6156 119.134 20.3839C119.35 20.1369 119.458 19.7585 119.458 19.249V14.7555C119.458 14.246 119.35 13.8753 119.134 13.6437C118.918 13.3967 118.539 13.273 117.999 13.273H110.216V19.249Z" fill="url(#paint7_linear_1_7)"/>
  <path d="M58.2758 18.6004L58.3683 18.5077C57.7816 17.4732 57.4881 16.4386 57.4881 15.4041V8.91858H62.6996C62.7459 10.7252 62.7691 13.4275 62.7691 17.0253C62.7691 20.6231 62.7459 23.3253 62.6996 25.132H58.1831L48.4784 15.3809L48.3856 15.4736C48.9878 16.4772 49.289 17.4731 49.289 18.4613V25.132H44.0544C44.0235 23.3253 44.008 20.6231 44.008 17.0253C44.008 13.4275 44.0235 10.7252 44.0544 8.91858H48.5708L58.2758 18.6004Z" fill="url(#paint8_linear_1_7)"/>
  <path d="M69.4536 22.3295H69.5464C69.778 21.6809 70.0791 21.2407 70.4497 21.0091C70.8203 20.7621 71.33 20.6387 71.9785 20.6387H76.6109C77.1049 20.6387 77.4523 20.5383 77.653 20.3376C77.8538 20.1214 77.9542 19.7893 77.9542 19.3415V8.91858H83.0497C83.2041 13.0259 83.2428 16.6856 83.1656 19.8973C83.1347 21.565 82.5092 22.8545 81.2893 23.7655C80.0695 24.6765 78.2474 25.132 75.8232 25.132H64.2654C64.219 22.9084 64.1958 20.2062 64.1958 17.0253C64.1649 14.0297 64.2036 11.3274 64.3117 8.91858H69.4536V22.3295Z" fill="url(#paint9_linear_1_7)"/>
  <path fill-rule="evenodd" clip-rule="evenodd" d="M103.324 8.91858C103.37 9.61344 103.401 11.0959 103.416 13.3658C103.416 14.5239 103.139 15.458 102.583 16.1683C102.027 16.8632 101.432 17.2569 100.799 17.3496C101.726 17.6584 102.413 18.0677 102.861 18.5772C103.324 19.0868 103.556 19.7895 103.556 20.6851C103.556 22.7232 103.548 24.2055 103.532 25.132H98.321V21.9356C98.3209 21.5033 98.205 21.1792 97.9735 20.963C97.7419 20.7468 97.3558 20.6387 96.8154 20.6387H89.9363V25.132H84.7017C84.6708 23.3253 84.6553 20.6231 84.6553 17.0253C84.6553 13.4275 84.6708 10.7252 84.7017 8.91858H103.324ZM89.9363 17.7434H90.0288C90.4457 16.7861 91.1716 16.3074 92.2062 16.3074H96.6302C97.6029 16.3074 98.0894 15.79 98.0894 14.7555V13.2962H89.9363V17.7434Z" fill="url(#paint10_linear_1_7)"/>
  <path d="M143.567 13.2499C141.776 13.2962 139.568 13.3194 136.943 13.3194H135.53V13.4122C136.565 13.7828 137.082 14.4545 137.082 15.4272V17.3032C137.082 20.7157 137.036 23.3253 136.943 25.132H131.917C131.824 23.3253 131.778 20.7157 131.778 17.3032C131.778 15.8826 131.793 14.5547 131.824 13.3194C129.153 13.3194 126.983 13.2962 125.316 13.2499V8.91858H143.567V13.2499Z" fill="url(#paint11_linear_1_7)"/>
  <path d="M160.892 12.9719C158.947 13.0183 156.514 13.0415 153.596 13.0415H149.867V16.5622H149.96C150.207 15.9136 150.5 15.4734 150.84 15.2418C151.195 14.9947 151.666 14.8714 152.253 14.8714H153.596C156.237 14.8714 158.46 14.8866 160.267 14.9175V18.7624C158.46 18.7933 156.237 18.8088 153.596 18.8088H149.867V20.7543H153.712C156.599 20.7543 159.016 20.7776 160.961 20.8239V25.132H144.632C144.602 23.3253 144.586 20.6231 144.586 17.0253C144.586 13.4275 144.602 10.7252 144.632 8.91858H160.892V12.9719Z" fill="url(#paint12_linear_1_7)"/>
  <path d="M167.431 16.7242H167.524C167.725 15.9676 167.987 15.4504 168.311 15.1725C168.635 14.8945 169.091 14.7555 169.678 14.7555H170.604L175.121 8.91858H181.143C178.364 12.501 176.294 15.0951 174.936 16.701C176.665 18.6466 179.02 21.457 182 25.132H175.468L170.489 19.2258H167.431V25.132H162.196C162.166 23.3253 162.15 20.6231 162.15 17.0253C162.15 13.4275 162.166 10.7252 162.196 8.91858H167.431V16.7242Z" fill="url(#paint13_linear_1_7)"/>
  <defs>
    <linearGradient id="paint0_linear_1_7" x1="16.3581" y1="13.2109" x2="16.3581" y2="20.7892" gradientUnits="userSpaceOnUse">
      <stop stop-color="#0BC9FD"/>
      <stop offset="0.5" stop-color="#25D8F8"/>
      <stop offset="1" stop-color="#2882F0"/>
    </linearGradient>
    <linearGradient id="paint1_linear_1_7" x1="16.3581" y1="13.2109" x2="16.3581" y2="20.7892" gradientUnits="userSpaceOnUse">
      <stop stop-color="#0BC9FD"/>
      <stop offset="0.5" stop-color="#25D8F8"/>
      <stop offset="1" stop-color="#2882F0"/>
    </linearGradient>
    <linearGradient id="paint2_linear_1_7" x1="16.3581" y1="13.2109" x2="16.3581" y2="20.7892" gradientUnits="userSpaceOnUse">
      <stop stop-color="#0BC9FD"/>
      <stop offset="0.5" stop-color="#25D8F8"/>
      <stop offset="1" stop-color="#2882F0"/>
    </linearGradient>
    <linearGradient id="paint3_linear_1_7" x1="16.3581" y1="13.2109" x2="16.3581" y2="20.7892" gradientUnits="userSpaceOnUse">
      <stop stop-color="#0BC9FD"/>
      <stop offset="0.5" stop-color="#25D8F8"/>
      <stop offset="1" stop-color="#2882F0"/>
    </linearGradient>
    <linearGradient id="paint4_linear_1_7" x1="16.3581" y1="13.2109" x2="16.3581" y2="20.7892" gradientUnits="userSpaceOnUse">
      <stop stop-color="#0BC9FD"/>
      <stop offset="0.5" stop-color="#25D8F8"/>
      <stop offset="1" stop-color="#2882F0"/>
    </linearGradient>
    <linearGradient id="paint5_linear_1_7" x1="16.3581" y1="13.2109" x2="16.3581" y2="20.7892" gradientUnits="userSpaceOnUse">
      <stop stop-color="#0BC9FD"/>
      <stop offset="0.5" stop-color="#25D8F8"/>
      <stop offset="1" stop-color="#2882F0"/>
    </linearGradient>
    <linearGradient id="paint6_linear_1_7" x1="16.3581" y1="13.2109" x2="16.3581" y2="20.7892" gradientUnits="userSpaceOnUse">
      <stop stop-color="#0BC9FD"/>
      <stop offset="0.5" stop-color="#25D8F8"/>
      <stop offset="1" stop-color="#2882F0"/>
    </linearGradient>
    <linearGradient id="paint7_linear_1_7" x1="181.904" y1="30.5037" x2="180.438" y2="1.2575" gradientUnits="userSpaceOnUse">
      <stop offset="0.177" stop-color="#0BC9FD"/>
      <stop offset="0.49" stop-color="#3FE6F2"/>
      <stop offset="0.906" stop-color="#2882F0"/>
    </linearGradient>
    <linearGradient id="paint8_linear_1_7" x1="181.904" y1="30.5037" x2="180.438" y2="1.2575" gradientUnits="userSpaceOnUse">
      <stop offset="0.177" stop-color="#0BC9FD"/>
      <stop offset="0.49" stop-color="#3FE6F2"/>
      <stop offset="0.906" stop-color="#2882F0"/>
    </linearGradient>
    <linearGradient id="paint9_linear_1_7" x1="181.904" y1="30.5037" x2="180.438" y2="1.2575" gradientUnits="userSpaceOnUse">
      <stop offset="0.177" stop-color="#0BC9FD"/>
      <stop offset="0.49" stop-color="#3FE6F2"/>
      <stop offset="0.906" stop-color="#2882F0"/>
    </linearGradient>
    <linearGradient id="paint10_linear_1_7" x1="181.904" y1="30.5037" x2="180.438" y2="1.2575" gradientUnits="userSpaceOnUse">
      <stop offset="0.177" stop-color="#0BC9FD"/>
      <stop offset="0.49" stop-color="#3FE6F2"/>
      <stop offset="0.906" stop-color="#2882F0"/>
    </linearGradient>
    <linearGradient id="paint11_linear_1_7" x1="181.904" y1="30.5037" x2="180.438" y2="1.2575" gradientUnits="userSpaceOnUse">
      <stop offset="0.177" stop-color="#0BC9FD"/>
      <stop offset="0.49" stop-color="#3FE6F2"/>
      <stop offset="0.906" stop-color="#2882F0"/>
    </linearGradient>
    <linearGradient id="paint12_linear_1_7" x1="181.904" y1="30.5037" x2="180.438" y2="1.2575" gradientUnits="userSpaceOnUse">
      <stop offset="0.177" stop-color="#0BC9FD"/>
      <stop offset="0.49" stop-color="#3FE6F2"/>
      <stop offset="0.906" stop-color="#2882F0"/>
    </linearGradient>
    <linearGradient id="paint13_linear_1_7" x1="181.904" y1="30.5037" x2="180.438" y2="1.2575" gradientUnits="userSpaceOnUse">
      <stop offset="0.177" stop-color="#0BC9FD"/>
      <stop offset="0.49" stop-color="#3FE6F2"/>
      <stop offset="0.906" stop-color="#2882F0"/>
    </linearGradient>
  </defs>
</svg>