<svg xmlns="http://www.w3.org/2000/svg" width="51" height="51" viewBox="0 0 51 51" fill="none">
  <g clip-path="url(#clip0_1_29)">
    <path d="M18.962 12.6526C13.0705 18.7482 14.3561 28.8641 21.1048 33.3453C21.3271 33.493 21.623 33.4637 21.814 33.2771C23.2347 31.8889 24.4366 30.5442 25.4891 28.8341C25.6501 28.5724 25.5499 28.2329 25.2798 28.0866C24.2505 27.529 23.2263 26.4834 22.6497 25.379C22.6496 25.3788 22.6493 25.3787 22.6492 25.3788C22.649 25.3789 22.6487 25.3788 22.6486 25.3787C21.9581 24.0035 21.723 22.4621 22.0885 20.8701C22.0885 20.8698 22.0889 20.8696 22.0893 20.8696C22.0896 20.8697 22.0898 20.8695 22.0899 20.8691C22.5106 18.8323 24.696 16.9374 26.3669 15.1848C26.3687 15.183 26.3679 15.1799 26.3655 15.1791C26.3631 15.1782 26.3623 15.1751 26.3641 15.1733L32.6231 8.78516C35.1189 6.23783 39.2243 6.21682 41.746 8.73856C44.2933 11.2343 44.3354 15.3604 41.8396 17.9076L38.0461 21.8086C37.8706 21.9891 37.8136 22.2525 37.8958 22.4906C38.7692 25.0235 38.9841 28.5949 38.3987 31.2932C38.3823 31.3687 38.4755 31.4181 38.5296 31.3629L46.6033 23.1225C51.761 17.8585 51.7172 9.28783 46.5061 4.0767C41.188 -1.2414 32.5303 -1.19714 27.2668 4.17489L18.9944 12.618C18.9834 12.6296 18.9731 12.6413 18.962 12.6526Z" fill="url(#paint0_linear_1_29)"/>
    <path d="M34.0558 34.5061C34.0556 34.5064 34.0559 34.5067 34.0563 34.5066C34.0604 34.5048 34.0644 34.5031 34.0685 34.5014C34.0698 34.5008 34.0709 34.4998 34.0716 34.4985C35.7178 31.4871 36.0422 28.0337 35.2712 24.6669C35.2708 24.6654 35.2689 24.6649 35.2678 24.666C35.2672 24.6666 35.2664 24.6668 35.2656 24.6664L35.2646 24.666C35.2636 24.6656 35.2629 24.6647 35.2626 24.6636C34.5291 21.6639 32.5174 18.6854 29.7854 16.8515C29.5503 16.6937 29.1749 16.712 28.9548 16.89C27.5706 18.0091 26.2158 19.4442 25.3219 21.2756C25.1815 21.5631 25.2866 21.9085 25.5633 22.0691C26.6006 22.6714 27.5374 23.553 28.1648 24.7235C28.1649 24.7238 28.1653 24.7239 28.1655 24.7237C28.1658 24.7235 28.1662 24.7236 28.1663 24.7238C28.6551 25.551 29.1365 27.1198 28.8247 28.8054C28.8246 28.8056 28.8245 28.8057 28.8243 28.8057C28.8241 28.8057 28.8239 28.8059 28.8239 28.8061C28.5326 31.0413 26.2756 33.0915 24.4812 34.939C24.481 34.9393 24.481 34.9396 24.4812 34.9399C24.4815 34.9401 24.4815 34.9405 24.4812 34.9408C23.1149 36.338 19.6429 39.8774 18.2526 41.2979C15.7569 43.8451 11.6308 43.8872 9.08357 41.3915C6.53633 38.8957 6.49422 34.7696 8.98997 32.2224L12.7947 28.3097C12.9671 28.1324 13.0258 27.8747 12.9491 27.6395C12.1043 25.0474 11.8728 21.5565 12.406 18.8613C12.4209 18.7861 12.3285 18.7382 12.2748 18.7929L4.32255 26.9093C-0.887984 32.2274 -0.843824 40.886 4.42084 46.1505C9.73864 51.3609 18.3526 51.2728 23.5629 45.955C25.373 43.9303 33.1214 36.7563 34.0558 34.5061Z" fill="url(#paint1_linear_1_29)"/>
  </g>
  <defs>
    <linearGradient id="paint0_linear_1_29" x1="16.6866" y1="-99.1969" x2="68.0671" y2="-84.9522" gradientUnits="userSpaceOnUse">
      <stop stop-color="#0BC9FD"/>
      <stop offset="0.5" stop-color="#25D8F8"/>
      <stop offset="1" stop-color="#2882F0"/>
    </linearGradient>
    <linearGradient id="paint1_linear_1_29" x1="1.92278" y1="-82.3769" x2="53.2753" y2="-68.1167" gradientUnits="userSpaceOnUse">
      <stop stop-color="#0BC9FD"/>
      <stop offset="0.5" stop-color="#25D8F8"/>
      <stop offset="1" stop-color="#2882F0"/>
    </linearGradient>
    <clipPath id="clip0_1_29">
      <rect width="50" height="50" fill="white" transform="translate(0.443283 0.0593262)"/>
    </clipPath>
  </defs>
</svg>