<svg xmlns="http://www.w3.org/2000/svg" width="138" height="17" viewBox="0 0 138 17" fill="none">
  <path fill-rule="evenodd" clip-rule="evenodd" d="M60.951 0.419044C68.0231 0.264633 72.4238 0.233941 74.1532 0.326588C76.1914 0.419237 77.7818 0.920921 78.9244 1.83189C80.0671 2.72748 80.6693 3.99374 80.7311 5.63049C80.8238 7.39078 80.816 9.31326 80.7079 11.3978C80.6307 12.9882 80.0287 14.2468 78.9015 15.1732C77.7898 16.0997 76.2069 16.6093 74.1532 16.702C73.5356 16.7174 72.4391 16.7252 70.8641 16.7252C69.3046 16.7252 68.2007 16.7174 67.5521 16.702C65.4984 16.6093 63.9001 16.092 62.7574 15.15C61.6303 14.1927 61.0205 12.9419 60.9278 11.3978C60.8197 9.63747 60.8275 5.97784 60.951 0.419044ZM66.2085 10.7495C66.2086 11.259 66.3167 11.6374 66.5328 11.8844C66.749 12.116 67.1196 12.2316 67.6446 12.2316H73.9909C74.5314 12.2316 74.9099 12.116 75.1261 11.8844C75.3423 11.6374 75.4501 11.259 75.4501 10.7495V6.25591C75.4501 5.74641 75.3422 5.3758 75.1261 5.14418C74.9099 4.89712 74.5314 4.77351 73.9909 4.77351H66.2085V10.7495Z" fill="white"/>
  <path d="M14.268 10.1009L14.3605 10.0081C13.7738 8.97362 13.4803 7.93904 13.4803 6.90452V0.419044H18.6918C18.7381 2.22567 18.7613 4.92794 18.7613 8.52574C18.7613 12.1235 18.7381 14.8258 18.6918 16.6324H14.1753L4.47057 6.88133L4.37783 6.97407C4.97999 7.9777 5.28117 8.97359 5.28118 9.96177V16.6324H0.0465599C0.015678 14.8258 0.000190735 12.1235 0.000190735 8.52574C0.000190912 4.92794 0.0156774 2.22567 0.0465599 0.419044H4.56303L14.268 10.1009Z" fill="white"/>
  <path d="M25.4458 13.8299H25.5386C25.7702 13.1814 26.0713 12.7412 26.4419 12.5095C26.8125 12.2625 27.3222 12.1391 27.9707 12.1391H32.6031C33.0971 12.1391 33.4445 12.0387 33.6452 11.838C33.846 11.6219 33.9464 11.2897 33.9464 10.8419V0.419044H39.0419C39.1963 4.5264 39.235 8.18603 39.1578 11.3978C39.1269 13.0655 38.5014 14.3549 37.2815 15.266C36.0617 16.177 34.2396 16.6324 31.8154 16.6324H20.2576C20.2112 14.4089 20.188 11.7066 20.188 8.52574C20.1571 5.53015 20.1959 2.82787 20.3039 0.419044H25.4458V13.8299Z" fill="white"/>
  <path fill-rule="evenodd" clip-rule="evenodd" d="M59.3162 0.419044C59.3625 1.1139 59.3932 2.59637 59.4087 4.86625C59.4087 6.02432 59.1307 6.95847 58.5749 7.66876C58.019 8.36362 57.4245 8.7574 56.7914 8.85004C57.7178 9.15887 58.405 9.56813 58.8528 10.0777C59.316 10.5873 59.5478 11.2899 59.5478 12.1855C59.5478 14.2237 59.54 15.706 59.5246 16.6324H54.3132V13.4361C54.3131 13.0038 54.1972 12.6796 53.9657 12.4635C53.7341 12.2473 53.348 12.1391 52.8076 12.1391H45.9285V16.6324H40.6939C40.663 14.8258 40.6476 12.1235 40.6476 8.52574C40.6476 4.92794 40.663 2.22567 40.6939 0.419044H59.3162ZM45.9285 9.2439H46.021C46.4379 8.28654 47.1638 7.80787 48.1984 7.80787H52.6224C53.5951 7.80783 54.0816 7.29045 54.0816 6.25591V4.7967H45.9285V9.2439Z" fill="white"/>
  <path d="M99.5595 4.75033C97.7684 4.79665 95.5603 4.81988 92.9353 4.81988H91.5224V4.91262C92.5569 5.28322 93.0741 5.95493 93.0741 6.9277V8.80367C93.0741 12.2162 93.0279 14.8258 92.9353 16.6324H87.909C87.8164 14.8258 87.7702 12.2162 87.7702 8.80367C87.7702 7.3831 87.7857 6.05517 87.8166 4.81988C85.1452 4.81988 82.9756 4.79665 81.3079 4.75033V0.419044H99.5595V4.75033Z" fill="white"/>
  <path d="M116.884 4.47239C114.939 4.51872 112.507 4.54195 109.588 4.54195H105.859V8.06262H105.952C106.199 7.4141 106.492 6.97385 106.832 6.74222C107.187 6.49516 107.658 6.37184 108.245 6.37184H109.588C112.229 6.37184 114.452 6.38704 116.259 6.41792V10.2629C114.452 10.2938 112.229 10.3093 109.588 10.3093H105.859V12.2548H109.704C112.591 12.2548 115.008 12.278 116.954 12.3243V16.6324H100.625C100.594 14.8258 100.578 12.1235 100.578 8.52574C100.578 4.92794 100.594 2.22567 100.625 0.419044H116.884V4.47239Z" fill="white"/>
  <path d="M123.423 8.22463H123.516C123.717 7.46811 123.979 6.95091 124.303 6.67295C124.628 6.39501 125.083 6.25591 125.67 6.25591H126.596L131.113 0.419044H137.135C134.356 4.00143 132.287 6.59554 130.928 8.20144C132.657 10.147 135.012 12.9574 137.992 16.6324H131.461L126.481 10.7263H123.423V16.6324H118.189C118.158 14.8258 118.143 12.1235 118.143 8.52574C118.143 4.92794 118.158 2.22567 118.189 0.419044H123.423V8.22463Z" fill="white"/>
</svg>