<svg width="26" height="26" viewBox="0 0 26 26" fill="none" xmlns="http://www.w3.org/2000/svg">
<path d="M2.29401 12.2574C4.34006 10.9646 6.62401 9.88564 8.75803 8.80116C12.4294 7.02487 16.1153 5.27936 19.8384 3.65432C20.5628 3.37743 21.8643 3.10664 21.9919 4.33802C21.9221 6.08101 21.6346 7.8138 21.4374 9.5466C20.9369 13.3572 20.3584 17.1547 19.7943 20.9527C19.6 22.2178 18.2184 22.8727 17.3343 22.0631C15.2098 20.417 13.0689 18.7869 10.9715 17.1026C10.2845 16.3018 10.9216 15.1519 11.5352 14.58C13.285 12.6019 15.1407 10.9214 16.7991 8.84106C17.2465 7.60191 15.9247 8.64624 15.4888 8.96621C13.0932 10.8598 10.7563 12.869 8.23069 14.5332C6.94059 15.3478 5.43697 14.6516 4.14746 14.197C2.99125 13.6479 1.29697 13.0947 2.2939 12.2575L2.29401 12.2574Z" fill="white"/>
</svg>
